<mxfile host="65bd71144e">
    <diagram id="I-V-jPhW4gry7mbCwamY" name="Page-1">
        <mxGraphModel dx="1408" dy="1312" grid="1" gridSize="10" guides="1" tooltips="1" connect="1" arrows="1" fold="1" page="1" pageScale="1" pageWidth="827" pageHeight="1169" background="#ffffff" math="0" shadow="0">
            <root>
                <mxCell id="0"/>
                <mxCell id="1" parent="0"/>
                <mxCell id="19" style="edgeStyle=none;html=1;entryX=0;entryY=0.5;entryDx=0;entryDy=0;" parent="1" source="FiJ3dQUdY0tjjipgx3rU-2" target="16" edge="1">
                    <mxGeometry relative="1" as="geometry"/>
                </mxCell>
                <mxCell id="FiJ3dQUdY0tjjipgx3rU-17" value="                                                             DOCKER" style="swimlane;fillColor=#dae8fc;strokeColor=#6c8ebf;" parent="1" vertex="1">
                    <mxGeometry x="270" y="150" width="430" height="400" as="geometry"/>
                </mxCell>
                <mxCell id="FiJ3dQUdY0tjjipgx3rU-5" value="imu_driver&lt;br&gt;&lt;b&gt;TODO&lt;/b&gt;" style="rounded=1;whiteSpace=wrap;html=1;fillColor=#dae8fc;strokeColor=#6c8ebf;" parent="FiJ3dQUdY0tjjipgx3rU-17" vertex="1">
                    <mxGeometry x="60" y="300" width="120" height="60" as="geometry"/>
                </mxCell>
                <mxCell id="FiJ3dQUdY0tjjipgx3rU-31" value="&lt;div&gt;Upstart (automatic):&lt;/div&gt;&lt;div&gt;&lt;b&gt;docker&lt;/b&gt;&lt;/div&gt;" style="shape=parallelogram;perimeter=parallelogramPerimeter;whiteSpace=wrap;html=1;fixedSize=1;fillColor=#f8cecc;strokeColor=#b85450;" parent="FiJ3dQUdY0tjjipgx3rU-17" vertex="1">
                    <mxGeometry x="-20" y="-20" width="240" height="60" as="geometry"/>
                </mxCell>
                <mxCell id="FiJ3dQUdY0tjjipgx3rU-12" value="panther lights" style="rounded=1;whiteSpace=wrap;html=1;fillColor=#dae8fc;strokeColor=#6c8ebf;" parent="FiJ3dQUdY0tjjipgx3rU-17" vertex="1">
                    <mxGeometry x="270" y="300" width="120" height="60" as="geometry"/>
                </mxCell>
                <mxCell id="3" value="&lt;div&gt;roscore&lt;br&gt;10.15.20.2&lt;/div&gt;" style="rounded=1;whiteSpace=wrap;html=1;fillColor=#dae8fc;strokeColor=#6c8ebf;" parent="FiJ3dQUdY0tjjipgx3rU-17" vertex="1">
                    <mxGeometry x="270" y="210" width="120" height="60" as="geometry"/>
                </mxCell>
                <mxCell id="FiJ3dQUdY0tjjipgx3rU-1" value="f710_joy_driver&lt;br&gt;&lt;b&gt;TODO&lt;/b&gt;" style="rounded=1;whiteSpace=wrap;html=1;fillColor=#dae8fc;strokeColor=#6c8ebf;" parent="FiJ3dQUdY0tjjipgx3rU-17" vertex="1">
                    <mxGeometry x="60" y="175" width="120" height="50" as="geometry"/>
                </mxCell>
                <mxCell id="FiJ3dQUdY0tjjipgx3rU-2" value="&lt;div&gt;panther_driver&lt;br&gt;&lt;/div&gt;" style="rounded=1;whiteSpace=wrap;html=1;fillColor=#dae8fc;strokeColor=#6c8ebf;" parent="FiJ3dQUdY0tjjipgx3rU-17" vertex="1">
                    <mxGeometry x="270" y="90" width="120" height="60" as="geometry"/>
                </mxCell>
                <mxCell id="FiJ3dQUdY0tjjipgx3rU-8" style="edgeStyle=orthogonalEdgeStyle;rounded=0;orthogonalLoop=1;jettySize=auto;html=1;entryX=0;entryY=0.75;entryDx=0;entryDy=0;" parent="FiJ3dQUdY0tjjipgx3rU-17" source="FiJ3dQUdY0tjjipgx3rU-1" target="FiJ3dQUdY0tjjipgx3rU-2" edge="1">
                    <mxGeometry relative="1" as="geometry"/>
                </mxCell>
                <mxCell id="34" style="edgeStyle=none;html=1;entryX=0;entryY=0.25;entryDx=0;entryDy=0;" parent="FiJ3dQUdY0tjjipgx3rU-17" source="88Ix2T1ApFJFmfPS_afO-1" target="FiJ3dQUdY0tjjipgx3rU-2" edge="1">
                    <mxGeometry relative="1" as="geometry"/>
                </mxCell>
                <mxCell id="88Ix2T1ApFJFmfPS_afO-1" value="&lt;div&gt;webui_joystick&lt;/div&gt;" style="rounded=1;whiteSpace=wrap;html=1;fillColor=#dae8fc;strokeColor=#6c8ebf;" parent="FiJ3dQUdY0tjjipgx3rU-17" vertex="1">
                    <mxGeometry x="60" y="80" width="120" height="50" as="geometry"/>
                </mxCell>
                <mxCell id="FiJ3dQUdY0tjjipgx3rU-25" value="POWER&lt;br&gt;BOARD" style="rhombus;whiteSpace=wrap;html=1;fillColor=#e1d5e7;strokeColor=#9673a6;" parent="1" vertex="1">
                    <mxGeometry x="815" y="700" width="80" height="80" as="geometry"/>
                </mxCell>
                <mxCell id="29" style="edgeStyle=none;html=1;" parent="1" source="FiJ3dQUdY0tjjipgx3rU-35" target="FiJ3dQUdY0tjjipgx3rU-25" edge="1">
                    <mxGeometry relative="1" as="geometry"/>
                </mxCell>
                <mxCell id="FiJ3dQUdY0tjjipgx3rU-35" value="soft_stop_script.py" style="ellipse;whiteSpace=wrap;html=1;fillColor=#d5e8d4;strokeColor=#82b366;" parent="1" vertex="1">
                    <mxGeometry x="789.25" y="470" width="131.5" height="90" as="geometry"/>
                </mxCell>
                <mxCell id="FiJ3dQUdY0tjjipgx3rU-32" value="&lt;div&gt;Upstart:&lt;/div&gt;&lt;div&gt;&lt;b&gt;panther_powerboard.service&lt;/b&gt;&lt;br&gt;&lt;/div&gt;" style="shape=parallelogram;perimeter=parallelogramPerimeter;whiteSpace=wrap;html=1;fixedSize=1;fillColor=#f8cecc;strokeColor=#b85450;" parent="1" vertex="1">
                    <mxGeometry x="750" y="430" width="220" height="60" as="geometry"/>
                </mxCell>
                <mxCell id="FiJ3dQUdY0tjjipgx3rU-49" value="LEGENDA" style="swimlane;" parent="1" vertex="1">
                    <mxGeometry x="1120" y="110" width="230" height="640" as="geometry"/>
                </mxCell>
                <mxCell id="FiJ3dQUdY0tjjipgx3rU-48" value="Kontener Dockerowy" style="rounded=1;whiteSpace=wrap;html=1;fillColor=#dae8fc;strokeColor=#6c8ebf;" parent="FiJ3dQUdY0tjjipgx3rU-49" vertex="1">
                    <mxGeometry x="42.5" y="60" width="145" height="55" as="geometry"/>
                </mxCell>
                <mxCell id="FiJ3dQUdY0tjjipgx3rU-45" value="skrypt" style="ellipse;whiteSpace=wrap;html=1;fillColor=#d5e8d4;strokeColor=#82b366;" parent="FiJ3dQUdY0tjjipgx3rU-49" vertex="1">
                    <mxGeometry x="25" y="145" width="180" height="80" as="geometry"/>
                </mxCell>
                <mxCell id="FiJ3dQUdY0tjjipgx3rU-51" value="Element&lt;br&gt;Hardware" style="rhombus;whiteSpace=wrap;html=1;fillColor=#e1d5e7;strokeColor=#9673a6;" parent="FiJ3dQUdY0tjjipgx3rU-49" vertex="1">
                    <mxGeometry x="65" y="250" width="100" height="100" as="geometry"/>
                </mxCell>
                <mxCell id="FiJ3dQUdY0tjjipgx3rU-54" value="Protokół&lt;br&gt;komunikacji" style="shape=hexagon;perimeter=hexagonPerimeter2;whiteSpace=wrap;html=1;fixedSize=1;fillColor=#ffe6cc;strokeColor=#d79b00;" parent="FiJ3dQUdY0tjjipgx3rU-49" vertex="1">
                    <mxGeometry x="55" y="380" width="120" height="80" as="geometry"/>
                </mxCell>
                <mxCell id="FiJ3dQUdY0tjjipgx3rU-61" value="Setwis uruchamiający &lt;br&gt;funkcjonalność na RPI" style="shape=parallelogram;perimeter=parallelogramPerimeter;whiteSpace=wrap;html=1;fixedSize=1;fillColor=#f8cecc;strokeColor=#b85450;" parent="FiJ3dQUdY0tjjipgx3rU-49" vertex="1">
                    <mxGeometry x="20" y="510" width="190" height="60" as="geometry"/>
                </mxCell>
                <mxCell id="FiJ3dQUdY0tjjipgx3rU-66" value="EEPROM&lt;br&gt;load_env_on_boot.sh" style="ellipse;whiteSpace=wrap;html=1;fillColor=#d5e8d4;strokeColor=#82b366;" parent="1" vertex="1">
                    <mxGeometry x="200" y="640" width="160" height="110" as="geometry"/>
                </mxCell>
                <mxCell id="FiJ3dQUdY0tjjipgx3rU-67" value="&lt;div&gt;Upstart:&lt;/div&gt;&lt;div&gt;&lt;b&gt;panther_eeprom_config.service&lt;/b&gt;&lt;/div&gt;" style="shape=parallelogram;perimeter=parallelogramPerimeter;whiteSpace=wrap;html=1;fixedSize=1;fillColor=#f8cecc;strokeColor=#b85450;" parent="1" vertex="1">
                    <mxGeometry x="150" y="605" width="250" height="60" as="geometry"/>
                </mxCell>
                <mxCell id="31" style="edgeStyle=none;html=1;" parent="1" source="10" target="FiJ3dQUdY0tjjipgx3rU-5" edge="1">
                    <mxGeometry relative="1" as="geometry"/>
                </mxCell>
                <mxCell id="10" value="IMU" style="rhombus;whiteSpace=wrap;html=1;fillColor=#e1d5e7;strokeColor=#9673a6;" parent="1" vertex="1">
                    <mxGeometry x="40" y="440" width="80" height="80" as="geometry"/>
                </mxCell>
                <mxCell id="14" style="edgeStyle=none;html=1;entryX=0.5;entryY=0;entryDx=0;entryDy=0;" parent="1" source="11" target="12" edge="1">
                    <mxGeometry relative="1" as="geometry"/>
                </mxCell>
                <mxCell id="11" value="f710_joy" style="rhombus;whiteSpace=wrap;html=1;fillColor=#e1d5e7;strokeColor=#9673a6;" parent="1" vertex="1">
                    <mxGeometry x="40" y="190" width="80" height="80" as="geometry"/>
                </mxCell>
                <mxCell id="32" style="edgeStyle=none;html=1;entryX=0;entryY=0.5;entryDx=0;entryDy=0;" parent="1" source="12" target="FiJ3dQUdY0tjjipgx3rU-1" edge="1">
                    <mxGeometry relative="1" as="geometry"/>
                </mxCell>
                <mxCell id="12" value="wireless&lt;br&gt;adapter" style="rhombus;whiteSpace=wrap;html=1;fillColor=#e1d5e7;strokeColor=#9673a6;" parent="1" vertex="1">
                    <mxGeometry x="40" y="310" width="80" height="80" as="geometry"/>
                </mxCell>
                <mxCell id="24" style="edgeStyle=none;html=1;exitX=1;exitY=0.5;exitDx=0;exitDy=0;" parent="1" source="16" target="23" edge="1">
                    <mxGeometry relative="1" as="geometry"/>
                </mxCell>
                <mxCell id="16" value="CAN" style="shape=hexagon;perimeter=hexagonPerimeter2;whiteSpace=wrap;html=1;fixedSize=1;rotation=0;fillColor=#ffe6cc;strokeColor=#d79b00;" parent="1" vertex="1">
                    <mxGeometry x="780" y="230" width="120" height="80" as="geometry"/>
                </mxCell>
                <mxCell id="FiJ3dQUdY0tjjipgx3rU-34" value="panther_can_setup.sh" style="ellipse;whiteSpace=wrap;html=1;fillColor=#d5e8d4;strokeColor=#82b366;" parent="1" vertex="1">
                    <mxGeometry x="799.25" y="170" width="150" height="80" as="geometry"/>
                </mxCell>
                <mxCell id="FiJ3dQUdY0tjjipgx3rU-33" value="&lt;div&gt;Upstart:&lt;/div&gt;&lt;div&gt;&lt;b&gt;panther_can_setup.service&lt;/b&gt;&lt;/div&gt;" style="shape=parallelogram;perimeter=parallelogramPerimeter;whiteSpace=wrap;html=1;fixedSize=1;fillColor=#f8cecc;strokeColor=#b85450;" parent="1" vertex="1">
                    <mxGeometry x="780" y="130" width="210" height="60" as="geometry"/>
                </mxCell>
                <mxCell id="23" value="4x Roboteq&lt;br&gt;Motor drivers" style="rhombus;whiteSpace=wrap;html=1;fillColor=#e1d5e7;strokeColor=#9673a6;" parent="1" vertex="1">
                    <mxGeometry x="980" y="220" width="100" height="100" as="geometry"/>
                </mxCell>
                <mxCell id="26" value="LEDS" style="rhombus;whiteSpace=wrap;html=1;fillColor=#e1d5e7;strokeColor=#9673a6;" parent="1" vertex="1">
                    <mxGeometry x="560" y="700" width="80" height="80" as="geometry"/>
                </mxCell>
                <mxCell id="30" style="edgeStyle=none;html=1;entryX=0.5;entryY=0;entryDx=0;entryDy=0;" parent="1" source="FiJ3dQUdY0tjjipgx3rU-12" target="26" edge="1">
                    <mxGeometry relative="1" as="geometry"/>
                </mxCell>
                <mxCell id="21" value="GPIO" style="shape=hexagon;perimeter=hexagonPerimeter2;whiteSpace=wrap;html=1;fixedSize=1;fillColor=#ffe6cc;strokeColor=#d79b00;" parent="1" vertex="1">
                    <mxGeometry x="540" y="585" width="400" height="80" as="geometry"/>
                </mxCell>
                <mxCell id="7" value="USB" style="shape=hexagon;perimeter=hexagonPerimeter2;whiteSpace=wrap;html=1;fixedSize=1;rotation=90;fillColor=#ffe6cc;strokeColor=#d79b00;" parent="1" vertex="1">
                    <mxGeometry x="70" y="390" width="260" height="70" as="geometry"/>
                </mxCell>
                <mxCell id="37" value="&lt;b&gt;&lt;font style=&quot;font-size: 24px&quot;&gt;Panther RPi Software&lt;/font&gt;&lt;/b&gt;" style="text;html=1;align=center;verticalAlign=middle;resizable=0;points=[];autosize=1;strokeColor=none;fillColor=none;" parent="1" vertex="1">
                    <mxGeometry x="529.25" y="70" width="260" height="20" as="geometry"/>
                </mxCell>
            </root>
        </mxGraphModel>
    </diagram>
</mxfile>